SplineFontDB: 3.2
FontName: DroideFutur-Light
FullName: Droide Futur Light
FamilyName: Droide Futur Light
Weight: Light
Copyright: Copyright (c) 2023, Bao Nguyen (RandomMaerks) (rmforbusiness@gmail.com)
UComments: "2023-9-15: Created with FontForge (http://fontforge.org)"
Version: 0.1
ItalicAngle: 0
UnderlinePosition: -100
UnderlineWidth: 50
Ascent: 800
Descent: 200
InvalidEm: 0
LayerCount: 2
Layer: 0 0 "Back" 1
Layer: 1 0 "Fore" 0
XUID: [1021 366 1780442531 1493]
FSType: 0
OS2Version: 0
OS2_WeightWidthSlopeOnly: 0
OS2_UseTypoMetrics: 1
CreationTime: 1694783912
ModificationTime: 1694841385
PfmFamily: 17
TTFWeight: 300
TTFWidth: 5
LineGap: 90
VLineGap: 0
OS2TypoAscent: 0
OS2TypoAOffset: 1
OS2TypoDescent: 0
OS2TypoDOffset: 1
OS2TypoLinegap: 90
OS2WinAscent: 0
OS2WinAOffset: 1
OS2WinDescent: 0
OS2WinDOffset: 1
HheadAscent: 0
HheadAOffset: 1
HheadDescent: 0
HheadDOffset: 1
OS2Vendor: 'PfEd'
MarkAttachClasses: 1
DEI: 91125
LangName: 1033
Encoding: ISO8859-1
UnicodeInterp: none
NameList: AGL For New Fonts
DisplaySize: -36
AntiAlias: 1
FitToEm: 0
WinInfo: 0 25 5
BeginPrivate: 0
EndPrivate
Grid
-1000 -180.072265625 m 0
 2000 -180.072265625 l 1028
-1000 700 m 0
 2000 700 l 1024
  Named: "ascender line"
-1000 650 m 0
 2000 650 l 1024
  Named: "cap height"
-1000 480 m 0
 2000 480 l 1024
  Named: "x-height"
EndSplineSet
BeginChars: 256 53

StartChar: a
Encoding: 97 97 0
GlifName: a
Width: 555
Flags: HW
LayerCount: 2
Fore
SplineSet
555 83 m 1
 504.845346181 18.4000881048 472.107454846 -7 439 -7 c 0
 404.325179001 -7 379 21.7018695342 379 61 c 2
 379 379 l 2
 379 420.63288484 366.941885491 435 332 435 c 0
 311.576681732 435 277 417 71 313 c 1
 50 365 l 1
 269.949945538 467.692957986 309.217673032 487 340 487 c 0
 392.590504039 487 431 449.856751159 431 399 c 2
 431 71 l 2
 431 51.6704463241 435.361445673 45 448 45 c 0
 458.958753616 45 482.623083966 70.0165777991 518 119 c 1
 555 83 l 1
393 286 m 1
 393 236 l 1
 267 236 l 2
 147.386742197 236 103 202 103 112 c 0
 103 73 122.814944797 48 154 48 c 0
 179.420004781 48 239.570528311 98.2591041048 379 236 c 5
 417 204 l 1
 261.177501001 39.7712872392 203.200537165 -6 151 -6 c 0
 92.2409507966 -6 50 43 50 112 c 0
 50 224 122.986204652 286 256 286 c 2
 393 286 l 1
EndSplineSet
EndChar

StartChar: n
Encoding: 110 110 1
GlifName: n
Width: 537
Flags: HW
LayerCount: 2
Fore
SplineSet
75 480 m 5
 127 480 l 5
 127 0 l 5
 75 0 l 5
 75 480 l 5
81 276 m 5
 275 462 326.674804688 487 368 487 c 4
 422.32421875 487 462 465.635742188 462 389 c 6
 462 0 l 5
 410 0 l 5
 410 379 l 6
 410 419.889648438 397.94140625 434 363 434 c 4
 330.125976562 434 303.375 411.455078125 112 236 c 5
 81 276 l 5
EndSplineSet
EndChar

StartChar: h
Encoding: 104 104 2
GlifName: h
Width: 537
Flags: HW
LayerCount: 2
Fore
SplineSet
75 700 m 5
 127 700 l 5
 127 0 l 5
 75 0 l 5
 75 700 l 5
81 276 m 5
 275 462 326.674804688 487 368 487 c 4
 422.32421875 487 462 465.635742188 462 389 c 6
 462 0 l 5
 410 0 l 5
 410 379 l 6
 410 419.889648438 397.94140625 434 363 434 c 4
 330.125976562 434 303.375 411.455078125 112 236 c 5
 81 276 l 5
EndSplineSet
EndChar

StartChar: m
Encoding: 109 109 3
GlifName: m
Width: 831
Flags: HW
LayerCount: 2
Fore
SplineSet
395 276 m 1
 575.48046875 462 623.5546875 487 662 487 c 0
 716.32421875 487 756 465.635742188 756 389 c 2
 756 0 l 1
 704 0 l 1
 704 379 l 2
 704 419.889648438 691.94140625 434 657 434 c 0
 626.745117188 434 602.125976562 411.455078125 426 236 c 1
 395 276 l 1
75 480 m 1
 127 480 l 1
 127 0 l 1
 75 0 l 1
 75 480 l 1
81 276 m 1
 261.48046875 462 309.5546875 487 348 487 c 0
 402.32421875 487 442 465.635742188 442 389 c 2
 442 0 l 1
 390 0 l 1
 390 379 l 2
 390 419.889648438 377.94140625 434 343 434 c 0
 312.745117188 434 288.125976562 411.455078125 112 236 c 1
 81 276 l 1
EndSplineSet
EndChar

StartChar: u
Encoding: 117 117 4
GlifName: u
Width: 537
Flags: HW
LayerCount: 2
Fore
SplineSet
462 0 m 5
 410 0 l 5
 410 480 l 5
 462 480 l 5
 462 0 l 5
456 204 m 5
 262 18 210.325195312 -7 169 -7 c 4
 114.67578125 -7 75 14.3642578125 75 91 c 6
 75 480 l 5
 127 480 l 5
 127 101 l 6
 127 60.1103515625 139.05859375 46 174 46 c 4
 206.874023438 46 233.625 68.544921875 425 244 c 5
 456 204 l 5
EndSplineSet
EndChar

StartChar: i
Encoding: 105 105 5
GlifName: i
Width: 202
Flags: HW
LayerCount: 2
Fore
SplineSet
44 633 m 0
 44 640.222222222 94.7777777778 691 102 691 c 0
 109.222222222 691 160 640.222222222 160 633 c 0
 160 625.777777778 109.222222222 575 102 575 c 0
 94.7777777778 575 44 625.777777778 44 633 c 0
75 480 m 5
 127 480 l 5
 127 0 l 5
 75 0 l 5
 75 480 l 5
EndSplineSet
EndChar

StartChar: l
Encoding: 108 108 6
GlifName: l
Width: 202
Flags: HW
LayerCount: 2
Fore
SplineSet
75 700 m 5
 127 700 l 5
 127 0 l 5
 75 0 l 5
 75 700 l 5
EndSplineSet
EndChar

StartChar: o
Encoding: 111 111 7
GlifName: o
Width: 541
Flags: HW
LayerCount: 2
Fore
SplineSet
429 191.939453125 m 6
 429 379 l 6
 429 417.659303977 416.94140625 431 382 431 c 4
 326 431 112 329.76495479 112 285.060546875 c 6
 112 100 l 6
 112 59.1103515625 124.05859375 45 159 45 c 4
 196.043605639 45 429 139.010472762 429 191.939453125 c 6
60 302 m 6
 60 368.01659751 316 487 387 487 c 4
 451.287109375 487 481 456.022460938 481 389 c 6
 481 169 l 6
 481 110.972594272 234.684087135 -8 154 -8 c 4
 89.712890625 -8 60 22.9775390625 60 90 c 6
 60 302 l 6
EndSplineSet
EndChar

StartChar: c
Encoding: 99 99 8
GlifName: c
Width: 511
Flags: HW
LayerCount: 2
Fore
SplineSet
60 393 m 6
 60 460 90 491 154 491 c 4
 196.543071161 491 259.782771536 466 461 368 c 5
 435 322 l 5
 274.779661017 403 191.745762712 438 159 438 c 4
 124 438 112 424 112 383 c 6
 112 100 l 6
 112 59 124 45 159 45 c 4
 191.745762712 45 274.779661017 80 435 161 c 5
 461 115 l 5
 259.782771536 17 196.543071161 -8 154 -8 c 4
 90 -8 60 23 60 90 c 6
 60 393 l 6
EndSplineSet
EndChar

StartChar: e
Encoding: 101 101 9
GlifName: e
Width: 541
Flags: HW
LayerCount: 2
Fore
SplineSet
76 219 m 1
 481 219 l 1
 481 271 l 1
 76 271 l 1
 76 219 l 1
112 100 m 2
 112 324 l 2
 112 370.8125 345.000975653 434 382 434 c 0
 417.018184621 434 429 419.978726684 429 379 c 2
 429 248 l 1
 481 248 l 1
 481 389 l 2
 481 455.861776181 451.132724092 487 387 487 c 0
 318.073962183 487 60 404.391760628 60 354 c 2
 60 90 l 2
 60 23.1382238188 91.7736977742 -8 160 -8 c 0
 203.524881731 -8 269.131204642 13.7281390991 471 95 c 1
 446 149 l 1
 278.77332615 76.1087396282 192.925169676 45 159 45 c 0
 123.981815379 45 112 59.0212733164 112 100 c 2
EndSplineSet
EndChar

StartChar: s
Encoding: 115 115 10
GlifName: s
Width: 531
Flags: HW
LayerCount: 2
Fore
SplineSet
417 480 m 5
 466 480 l 5
 466 252 l 5
 417 252 l 5
 417 480 l 5
471 75 m 4
 471 17.8792434543 443.87356409 -8 384 -8 c 4
 338.926790047 -8 272.654966245 17.158747925 60 115 c 5
 86 161 l 5
 252.722582747 79.6474144427 338.146380425 45 372 45 c 4
 403.971436126 45 415 53.976738037 415 80 c 4
 415 102.801237881 394.501672165 119.945293888 250 218 c 4
 109.604682625 313.106505319 60 362.97226522 60 409 c 4
 60 464.914927123 89.9024006146 491 154 491 c 4
 197.269780245 491 261.246567275 461.296491736 462 348 c 5
 436 302 l 5
 229.575488712 421.899267035 190.137284677 441 149 441 c 4
 124.242142109 441 116 432.258334127 116 406 c 4
 116 378.269110286 145.295932053 352.009951677 280 259 c 4
 425.80892607 158.658373457 471 115.123516896 471 75 c 4
EndSplineSet
EndChar

StartChar: r
Encoding: 114 114 11
GlifName: r
Width: 350
Flags: HW
LayerCount: 2
Fore
SplineSet
75 480 m 1
 127 480 l 1
 127 0 l 1
 75 0 l 1
 75 480 l 1
81 356 m 5
 188.481169283 454.524405176 239.839461131 487 268 487 c 6
 310 487 l 5
 310 434 l 5
 269 434 l 6
 245.139062164 434 216.08839779 411 112 316 c 5
 81 356 l 5
EndSplineSet
EndChar

StartChar: t
Encoding: 116 116 12
GlifName: t
Width: 348
Flags: HW
LayerCount: 2
Fore
SplineSet
30 430 m 5
 30 480 l 5
 304 480 l 5
 304 430 l 5
 30 430 l 5
122 610 m 1
 174 610 l 1
 174 71 l 2
 174 51.6708984375 178.361328125 45 191 45 c 0
 205.08984375 45 235.515625 70.0166015625 281 119 c 1
 318 83 l 1
 259.198242188 18.400390625 220.815429688 -7 182 -7 c 0
 147.325195312 -7 122 21.7021484375 122 61 c 2
 122 610 l 1
EndSplineSet
EndChar

StartChar: f
Encoding: 102 102 13
GlifName: f
Width: 348
Flags: HW
LayerCount: 2
Fore
SplineSet
30 430 m 1
 30 480 l 1
 304 480 l 1
 304 430 l 1
 30 430 l 1
318 620 m 1
 281 584 l 1
 235.515625 632.983398438 205.08984375 658 191 658 c 0
 178.361328125 658 174 651.329101562 174 632 c 2
 174 1 l 1
 122 1 l 1
 122 642 l 2
 122 681.297851562 147.325195312 710 182 710 c 0
 220.815429688 710 259.198242188 684.599609375 318 620 c 1
EndSplineSet
EndChar

StartChar: j
Encoding: 106 106 14
GlifName: j
Width: 202
Flags: HW
LayerCount: 2
Fore
SplineSet
44 633 m 0
 44 640.222222222 94.7777777778 691 102 691 c 0
 109.222222222 691 160 640.222222222 160 633 c 0
 160 625.777777778 109.222222222 575 102 575 c 0
 94.7777777778 575 44 625.777777778 44 633 c 0
-69 -103 m 5
 -32 -67 l 5
 13.484375 -115.983398438 43.91015625 -141 58 -141 c 4
 70.638671875 -141 75 -134.329101562 75 -115 c 6
 75 480 l 1
 127 480 l 1
 127 -125 l 6
 127 -164.297851562 101.674804688 -193 67 -193 c 4
 28.1845703125 -193 -10.1982421875 -167.599609375 -69 -103 c 5
EndSplineSet
EndChar

StartChar: b
Encoding: 98 98 15
GlifName: b
Width: 542
Flags: HW
LayerCount: 2
Fore
SplineSet
482 90 m 6
 482 23 452 -8 388 -8 c 4
 348 -8 279 33 101 195 c 5
 127 240 l 5
 276 103.698979592 353 45 383 45 c 4
 418 45 430 59 430 100 c 6
 430 383 l 6
 430 424 418 438 383 438 c 4
 353 438 276 378 127 240 c 5
 101 286 l 5
 279 449 348 491 388 491 c 4
 452 491 482 460 482 393 c 6
 482 90 l 6
75 700 m 5
 127 700 l 5
 127 0 l 5
 75 0 l 5
 75 700 l 5
EndSplineSet
EndChar

StartChar: d
Encoding: 100 100 16
GlifName: d
Width: 542
Flags: HW
LayerCount: 2
Fore
SplineSet
60 90 m 6
 60 393 l 6
 60 460 90 491 154 491 c 4
 194 491 263 449 441 286 c 5
 415 240 l 5
 266 378 189 438 159 438 c 4
 124 438 112 424 112 383 c 6
 112 100 l 6
 112 59 124 45 159 45 c 4
 189 45 266 103.69921875 415 240 c 5
 441 195 l 5
 263 33 194 -8 154 -8 c 4
 90 -8 60 23 60 90 c 6
467 700 m 5
 467 0 l 5
 415 0 l 5
 415 700 l 5
 467 700 l 5
EndSplineSet
EndChar

StartChar: p
Encoding: 112 112 17
GlifName: p
Width: 542
Flags: HW
LayerCount: 2
Fore
SplineSet
482 90 m 2
 482 23 452 -8 388 -8 c 0
 348 -8 279 33 101 195 c 1
 127 240 l 1
 276 103.698979592 353 45 383 45 c 0
 418 45 430 59 430 100 c 2
 430 383 l 2
 430 424 418 438 383 438 c 0
 353 438 276 378 127 240 c 1
 101 286 l 1
 279 449 348 491 388 491 c 0
 452 491 482 460 482 393 c 2
 482 90 l 2
75 480 m 1
 127 480 l 1
 127 -180 l 1
 75 -180 l 1
 75 480 l 1
EndSplineSet
EndChar

StartChar: q
Encoding: 113 113 18
GlifName: q
Width: 542
Flags: HW
LayerCount: 2
Fore
SplineSet
60 90 m 6
 60 393 l 6
 60 460 90 491 154 491 c 4
 194 491 263 449 441 286 c 5
 415 240 l 5
 266 378 189 438 159 438 c 4
 124 438 112 424 112 383 c 6
 112 100 l 6
 112 59 124 45 159 45 c 4
 189 45 266 104 415 240 c 5
 441 195 l 5
 263 33 194 -8 154 -8 c 4
 90 -8 60 23 60 90 c 6
467 480 m 5
 467 -180 l 5
 415 -180 l 5
 415 480 l 5
 467 480 l 5
EndSplineSet
EndChar

StartChar: g
Encoding: 103 103 19
GlifName: g
Width: 542
Flags: HW
LayerCount: 2
Fore
SplineSet
60 110 m 2
 60 393 l 2
 60 460 90 491 154 491 c 0
 194 491 263 451.048780488 441 296 c 1
 415 250 l 1
 266 381.03030303 189 438 159 438 c 0
 124 438 112 424 112 383 c 2
 112 120 l 2
 112 79 124 65 159 65 c 0
 189 65 266 120.974358974 415 250 c 1
 441 205 l 1
 263 50.9802955665 194 12 154 12 c 0
 90 12 60 43 60 110 c 2
415 -91 m 2
 415 480 l 1
 467 480 l 1
 467 -101 l 2
 467 -168 437 -199 373 -199 c 0
 329.486891386 -199 264.805243446 -179.894308943 59 -105 c 1
 82 -50 l 1
 248.025423729 -115.637931034 334.06779661 -144 368 -144 c 0
 403 -144 415 -130.509090909 415 -91 c 2
EndSplineSet
EndChar

StartChar: v
Encoding: 118 118 20
GlifName: v
Width: 497
Flags: HW
LayerCount: 2
Fore
SplineSet
276 56 m 1
 404 480 l 1
 462 480 l 1
 318 0 l 1
 171 0 l 25
 35 480 l 1
 93 480 l 1
 214 56 l 25
 276 56 l 1
EndSplineSet
EndChar

StartChar: w
Encoding: 119 119 21
GlifName: w
Width: 820
Flags: HW
LayerCount: 2
Fore
SplineSet
619 56 m 1
 727 480 l 1
 785 480 l 1
 661 0 l 1
 534 0 l 1
 433 428 l 1
 386 428 l 1
 278 0 l 1
 151 0 l 1
 35 480 l 1
 93 480 l 1
 194 56 l 1
 236 56 l 1
 344 480 l 1
 476 480 l 1
 577 56 l 1
 619 56 l 1
EndSplineSet
EndChar

StartChar: x
Encoding: 120 120 22
GlifName: x
Width: 497
Flags: HW
LayerCount: 2
Fore
SplineSet
276.557617188 213 m 5
 219.513671875 213 l 1
 95 0 l 1
 35 0 l 1
 176.776384535 239.247648903 l 1
 35 480 l 1
 95 480 l 1
 219.513671875 267 l 1
 276.557617188 267 l 5
 402 480 l 5
 462 480 l 1
 319.334717895 240.747663551 l 1
 462 0 l 1
 402 0 l 5
 276.557617188 213 l 5
EndSplineSet
EndChar

StartChar: y
Encoding: 121 121 23
GlifName: y
Width: 497
Flags: HW
LayerCount: 2
Fore
SplineSet
276 56 m 1
 404 480 l 1
 462 480 l 1
 264 -180 l 1
 67 -180 l 1
 67 -124 l 1
 222 -124 l 1
 260 0 l 1
 171 0 l 1
 35 480 l 1
 93 480 l 1
 214 56 l 1
 276 56 l 1
EndSplineSet
EndChar

StartChar: z
Encoding: 122 122 24
GlifName: z
Width: 531
Flags: HW
LayerCount: 2
Fore
SplineSet
114 480 m 1
 114 252 l 1
 65 252 l 1
 65 480 l 1
 114 480 l 1
410 421 m 1
 95 342 l 1
 69 388 l 1
 457 480 l 1
 477 421 l 1
 129 53 l 1
 471 53 l 1
 471 0 l 1
 67 0 l 1
 67 55 l 1
 410 421 l 1
EndSplineSet
EndChar

StartChar: k
Encoding: 107 107 25
GlifName: k
Width: 484
Flags: HW
LayerCount: 2
Fore
SplineSet
75 700 m 1
 127 700 l 1
 127 0 l 1
 75 0 l 1
 75 700 l 1
401 53 m 2
 442 53 l 1
 442 0 l 1
 395 0 l 2
 347.923344948 0 200.214692944 217 166 217 c 2
 125 217 l 1
 125 270 l 1
 166 270 l 2
 193.997428077 270 352.483920131 480 390 480 c 2
 442 480 l 1
 442 427 l 1
 401 427 l 2
 375.50857944 427 284.153683837 299.591083846 223.725585938 243.254882812 c 1
 282.596664063 185.238172561 380.000351709 53 401 53 c 2
EndSplineSet
EndChar

StartChar: H
Encoding: 72 72 26
GlifName: H_
Width: 631
Flags: HW
LayerCount: 2
Fore
SplineSet
75 650 m 1
 127 650 l 1
 127 360 l 5
 505 360 l 5
 505 650 l 1
 557 650 l 1
 557 0 l 1
 505 0 l 1
 505 310 l 5
 127 310 l 5
 127 0 l 1
 75 0 l 1
 75 650 l 1
EndSplineSet
EndChar

StartChar: N
Encoding: 78 78 27
GlifName: N_
Width: 631
Flags: HW
LayerCount: 2
Fore
SplineSet
75 650 m 5
 147 650 l 5
 505 270 l 5
 505 650 l 5
 557 650 l 5
 557 0 l 5
 505 0 l 5
 505 192 l 5
 127 591 l 5
 127 0 l 5
 75 0 l 5
 75 650 l 5
EndSplineSet
EndChar

StartChar: M
Encoding: 77 77 28
GlifName: M_
Width: 834
Flags: HW
LayerCount: 2
Fore
SplineSet
469 0 m 1
 365 0 l 1
 127 578 l 1
 127 0 l 1
 75 0 l 1
 75 650 l 1
 156 650 l 1
 398.307617188 57 l 1
 435.692382812 57 l 1
 674 650 l 1
 759 650 l 1
 759 0 l 1
 707 0 l 1
 707 578 l 1
 469 0 l 1
EndSplineSet
EndChar

StartChar: L
Encoding: 76 76 29
GlifName: L_
Width: 490
Flags: HW
LayerCount: 2
Fore
SplineSet
75 650 m 5
 127 650 l 5
 127 50 l 5
 455 50 l 5
 455 0 l 5
 75 0 l 5
 75 650 l 5
EndSplineSet
EndChar

StartChar: E
Encoding: 69 69 30
GlifName: E_
Width: 540
Flags: HW
LayerCount: 2
Fore
SplineSet
102 50 m 1
 490 50 l 1
 490 0 l 1
 50 0 l 1
 50 64 l 1
 260 325 l 1
 50 580 l 1
 50 650 l 1
 490 650 l 1
 490 600 l 1
 102 600 l 1
 309 350 l 1
 428 350 l 1
 428 300 l 1
 309 300 l 1
 102 50 l 1
EndSplineSet
EndChar

StartChar: F
Encoding: 70 70 31
GlifName: F_
Width: 540
Flags: HW
LayerCount: 2
Fore
SplineSet
113 0 m 1
 50 0 l 1
 260 325 l 1
 50 580 l 1
 50 650 l 1
 490 650 l 1
 490 600 l 1
 102 600 l 1
 309 350 l 1
 428 350 l 1
 428 300 l 1
 309 300 l 1
 113 0 l 1
EndSplineSet
EndChar

StartChar: T
Encoding: 84 84 32
GlifName: T_
Width: 558
Flags: HW
LayerCount: 2
Fore
SplineSet
305 0 m 1
 253 0 l 1
 253 600 l 1
 35 600 l 1
 35 650 l 1
 523 650 l 1
 523 600 l 1
 305 600 l 1
 305 0 l 1
EndSplineSet
EndChar

StartChar: O
Encoding: 79 79 33
GlifName: O_
Width: 631
Flags: HW
LayerCount: 2
Fore
SplineSet
519 191.939453125 m 6
 519 551 l 6
 519 589.659303977 506.94140625 603 472 603 c 4
 397.333333333 603 112 501.76495479 112 457.060546875 c 6
 112 100 l 6
 112 59.1103515625 124.05859375 45 159 45 c 4
 208.391474185 45 519 139.010472762 519 191.939453125 c 6
60 474 m 6
 60 540.01659751 386.458715596 659 477 659 c 4
 541.287109375 659 571 628.022460938 571 561 c 6
 571 169 l 6
 571 110.972594272 256.890716622 -8 154 -8 c 4
 89.712890625 -8 60 22.9775390625 60 90 c 6
 60 474 l 6
EndSplineSet
EndChar

StartChar: C
Encoding: 67 67 34
GlifName: C_
Width: 601
Flags: HW
LayerCount: 2
Fore
SplineSet
60 560 m 6
 60 627 90 658 154 658 c 4
 209.014981273 658 290.794007491 633 551 535 c 5
 525 489 l 5
 312.533898305 570 202.423728814 605 159 605 c 4
 124 605 112 591 112 550 c 6
 112 100 l 6
 112 59 124 45 159 45 c 4
 202.423728814 45 312.533898305 80 525 161 c 5
 551 115 l 5
 290.794007491 17 209.014981273 -8 154 -8 c 4
 90 -8 60 23 60 90 c 6
 60 560 l 6
EndSplineSet
EndChar

StartChar: G
Encoding: 71 71 35
GlifName: G_
Width: 612
Flags: HW
LayerCount: 2
Fore
SplineSet
60 560 m 2
 60 627 90 658 154 658 c 0
 209.014981273 658 290.794007491 633 551 535 c 1
 525 489 l 1
 312.533898305 570 202.423728814 605 159 605 c 0
 124 605 112 591 112 550 c 2
 112 100 l 2
 112 59 124 45 159 45 c 0
 202.423728814 45 312.533898305 80 525 161 c 1
 551 115 l 1
 290.794007491 17 209.014981273 -8 154 -8 c 0
 90 -8 60 23 60 90 c 2
 60 560 l 2
298 280 m 5
 298 330 l 5
 552 330 l 5
 552 0 l 5
 500 0 l 5
 500 280 l 5
 298 280 l 5
EndSplineSet
EndChar

StartChar: S
Encoding: 83 83 36
GlifName: S_
Width: 631
Flags: HW
LayerCount: 2
Fore
SplineSet
517 650 m 1
 566 650 l 1
 566 372 l 5
 517 372 l 5
 517 650 l 1
571 85 m 0
 571 20.9972245933 543.87356409 -8 484 -8 c 0
 425.015305494 -8 338.289215086 27.3858812279 60 165 c 1
 86 211 l 1
 311.017192099 94.5816448059 426.309450503 45 472 45 c 0
 503.971436126 45 515 53.976738037 515 80 c 0
 515 117.010704966 487.219899868 146.954703587 296 304 c 0
 134.641170577 444.945028611 60 505.13953028 60 569 c 0
 60 631.733820675 89.9024006146 661 154 661 c 0
 211.318410194 661 296.066881326 620.910649685 562 468 c 5
 536 422 l 5
 257.650571887 585.028499782 204.470833346 611 149 611 c 0
 124.242142109 611 116 602.258334127 116 576 c 0
 116 533.177469626 154.227618655 491.627612454 330 349 c 0
 510.876334708 202.757252175 571 142.568524243 571 85 c 0
EndSplineSet
EndChar

StartChar: Q
Encoding: 81 81 37
GlifName: Q_
Width: 631
Flags: HW
LayerCount: 2
Fore
SplineSet
254 262 m 5
 291 303 l 5
 466.690607735 101.728813559 515.72516862 53 556 53 c 6
 597 53 l 5
 597 0 l 5
 544 0 l 6
 500.328576085 0 420.68202723 64.9511896482 254 262 c 5
519 191.939453125 m 2
 519 551 l 2
 519 589.659303977 506.94140625 603 472 603 c 0
 397.333333333 603 112 501.76495479 112 457.060546875 c 2
 112 100 l 2
 112 59.1103515625 124.05859375 45 159 45 c 0
 208.391474185 45 519 139.010472762 519 191.939453125 c 2
60 474 m 2
 60 540.01659751 386.458715596 659 477 659 c 0
 541.287109375 659 571 628.022460938 571 561 c 2
 571 169 l 2
 571 110.972594272 256.890716622 -8 154 -8 c 0
 89.712890625 -8 60 22.9775390625 60 90 c 2
 60 474 l 2
EndSplineSet
EndChar

StartChar: R
Encoding: 82 82 38
GlifName: R_
Width: 624
Flags: HW
LayerCount: 2
Fore
SplineSet
281 266 m 1
 318 307 l 1
 463 92 495 53 526 53 c 2
 567 53 l 1
 567 0 l 1
 514 0 l 2
 476 0 405 81 281 266 c 1
564 488 m 2
 564 439.341463415 538.168168237 389.917973365 484 355 c 0
 432 324 266 240 127 173 c 0
 113 230 l 0
 248 296 407.726926615 367.203982154 454 397 c 0
 493.691821 425.713575643 512 457.666666667 512 488 c 2
 512 502 l 2
 512 573.547169811 480 598 385 598 c 2
 123 598 l 1
 127 650 l 1
 390 650 l 2
 508 650 564 603.164556962 564 502 c 2
 564 488 l 2
75 650 m 1
 127 650 l 1
 127 0 l 1
 75 0 l 1
 75 650 l 1
EndSplineSet
EndChar

StartChar: I
Encoding: 73 73 39
GlifName: I_
Width: 202
Flags: HW
LayerCount: 2
Fore
SplineSet
75 650 m 1
 127 650 l 1
 127 0 l 1
 75 0 l 1
 75 650 l 1
EndSplineSet
EndChar

StartChar: V
Encoding: 86 86 40
GlifName: V_
Width: 613
Flags: HW
LayerCount: 2
Fore
SplineSet
334 56 m 5
 520 650 l 5
 578 650 l 5
 376 0 l 5
 229 0 l 5
 35 650 l 5
 93 650 l 5
 272 56 l 5
 334 56 l 5
EndSplineSet
EndChar

StartChar: W
Encoding: 87 87 41
GlifName: W_
Width: 976
Flags: HW
LayerCount: 2
Fore
SplineSet
740 56 m 1
 883 650 l 1
 941 650 l 1
 782 0 l 1
 655 0 l 1
 511 598 l 1
 464 598 l 1
 313 0 l 1
 186 0 l 1
 35 650 l 1
 93 650 l 1
 229 56 l 1
 271 56 l 1
 422 650 l 1
 554 650 l 1
 698 56 l 1
 740 56 l 1
EndSplineSet
EndChar

StartChar: X
Encoding: 88 88 42
GlifName: X_
Width: 617
Flags: HW
LayerCount: 2
Fore
SplineSet
336.557617188 293 m 1
 279.513671875 293 l 1
 95 0 l 1
 35 0 l 1
 236.776367188 319.248046875 l 1
 35 650 l 1
 95 650 l 1
 279.513671875 347 l 1
 336.557617188 347 l 1
 522 650 l 1
 582 650 l 1
 379.334960938 320.748046875 l 1
 582 0 l 1
 522 0 l 1
 336.557617188 293 l 1
EndSplineSet
EndChar

StartChar: Y
Encoding: 89 89 43
GlifName: Y_
Width: 613
Flags: HW
LayerCount: 2
Fore
SplineSet
277 290 m 1
 329 290 l 1
 329 0 l 1
 277 0 l 1
 277 290 l 1
334 314 m 1
 520 650 l 1
 578 650 l 1
 366 258 l 1
 239 258 l 1
 35 650 l 1
 93 650 l 1
 272 314 l 1
 334 314 l 1
EndSplineSet
EndChar

StartChar: Z
Encoding: 90 90 44
GlifName: Z_
Width: 617
Flags: HW
LayerCount: 2
Fore
SplineSet
114 650 m 1
 114 422 l 1
 65 422 l 1
 65 650 l 1
 114 650 l 1
496 591 m 1
 95 512 l 1
 69 558 l 1
 543 650 l 1
 563 591 l 1
 129 53 l 1
 557 53 l 1
 557 0 l 1
 67 0 l 1
 67 55 l 1
 496 591 l 1
EndSplineSet
EndChar

StartChar: A
Encoding: 65 65 45
GlifName: A_
Width: 613
Flags: HW
LayerCount: 2
Fore
SplineSet
131 180 m 1
 131 230 l 1
 495 230 l 5
 495 180 l 5
 131 180 l 1
279 594 m 1
 93 0 l 1
 35 0 l 1
 237 650 l 1
 384 650 l 1
 578 0 l 1
 520 0 l 1
 341 594 l 1
 279 594 l 1
EndSplineSet
EndChar

StartChar: D
Encoding: 68 68 46
GlifName: D_
Width: 624
Flags: HW
LayerCount: 2
Fore
SplineSet
564 90 m 2
 564 23 534 -8 470 -8 c 0
 418.571428571 -8 329.857142857 24.921182266 101 155 c 5
 127 200 l 5
 323.7265625 91.6581632653 425.390625 45 465 45 c 0
 500 45 512 59 512 100 c 2
 512 392 l 2
 512 545.563636364 461.70212766 598 315 598 c 2
 123 598 l 1
 127 650 l 1
 320 650 l 2
 486.127659574 650 564 571.551020408 564 402 c 2
 564 90 l 2
75 650 m 1
 127 650 l 1
 127 0 l 1
 75 0 l 1
 75 650 l 1
EndSplineSet
EndChar

StartChar: J
Encoding: 74 74 47
GlifName: J_
Width: 379
Flags: HW
LayerCount: 2
Fore
SplineSet
30 147 m 1
 67 183 l 1
 150.893402778 92.6809543919 207.012065972 39 233 39 c 0
 247.125574449 39 252 45.6708984375 252 65 c 2
 252 650 l 1
 304 650 l 1
 304 55 l 2
 304 15.7021484375 278.674804688 -13 244 -13 c 0
 182.922779756 -13 122.526295381 37.15625 30 147 c 1
EndSplineSet
EndChar

StartChar: B
Encoding: 66 66 48
GlifName: B_
Width: 624
Flags: HW
LayerCount: 2
Fore
SplineSet
554 560 m 2
 554 478 l 2
 554 361.091836735 479.319148936 307 320 307 c 2
 127 307 l 1
 123 349 l 1
 315 349 l 2
 454.255319149 349 502 384.381818182 502 488 c 2
 502 550 l 2
 502 591 490 605 455 605 c 0
 416.5625 605 127 490 127 490 c 1
 101 535 l 1
 101 535 409.965156794 658 460 658 c 0
 524 658 554 627 554 560 c 2
564 90 m 2
 564 23 534 -8 470 -8 c 0
 418.571428571 -8 101 115 101 115 c 1
 127 160 l 1
 127 160 425.390625 45 465 45 c 0
 500 45 512 59 512 100 c 2
 512 162 l 2
 512 262.636363636 461.70212766 297 315 297 c 2
 123 297 l 1
 127 339 l 1
 320 339 l 2
 486.127659574 339 564 286.173469388 564 172 c 2
 564 90 l 2
75 0 m 1
 75 650 l 1
 127 650 l 1
 127 0 l 1
 75 0 l 1
EndSplineSet
EndChar

StartChar: K
Encoding: 75 75 49
GlifName: K_
Width: 556
Flags: HW
LayerCount: 2
Fore
SplineSet
75 650 m 1
 127 650 l 1
 127 0 l 1
 75 0 l 1
 75 650 l 1
473 53 m 2
 514 53 l 1
 514 0 l 1
 464 0 l 2
 402.738675958 0 210.523923569 297 166 297 c 2
 125 297 l 1
 125 350 l 1
 166 350 l 2
 202.621635833 350 409.927627672 650 459 650 c 2
 514 650 l 1
 514 597 l 1
 473 597 l 2
 437.15523945 597 308.696554684 407.185058427 223.725585938 323.254882812 c 1
 306.507151358 240.842810132 443.471344943 53 473 53 c 2
EndSplineSet
EndChar

StartChar: P
Encoding: 80 80 50
GlifName: P_
Width: 624
Flags: HW
LayerCount: 2
Fore
SplineSet
564 488 m 6
 564 439.341463415 538.168168237 389.917973365 484 355 c 4
 432 324 266 240 127 173 c 4
 113 230 l 4
 248 296 407.726926615 367.203982154 454 397 c 4
 493.691821 425.713575643 512 457.666666667 512 488 c 6
 512 502 l 6
 512 573.547169811 480 598 385 598 c 6
 123 598 l 5
 127 650 l 5
 390 650 l 6
 508 650 564 603.164556962 564 502 c 6
 564 488 l 6
75 650 m 5
 127 650 l 5
 127 0 l 5
 75 0 l 5
 75 650 l 5
EndSplineSet
EndChar

StartChar: U
Encoding: 85 85 51
GlifName: U_
Width: 631
Flags: HW
LayerCount: 2
Fore
SplineSet
127 650 m 1
 127 100 l 2
 127 59.0212733164 138.981815379 45 174 45 c 0
 257.135513266 45 504 154.966907727 504 192 c 2
 504 650 l 1
 556 650 l 1
 556 169 l 2
 556 118.056183504 280.385632679 -8 169 -8 c 0
 104.867275908 -8 75 23.1382238188 75 90 c 2
 75 650 l 1
 127 650 l 1
EndSplineSet
EndChar

